<?xml version="1.0" encoding="UTF-8"?>
<svg id="Layer_2" data-name="Layer 2" xmlns="http://www.w3.org/2000/svg" viewBox="0 0 807.96 250.08">
  <defs>
    <style>
      .cls-1 {
        fill: #006b3e;
      }
    </style>
  </defs>
  <g id="Layer_1-2" data-name="Layer 1">
    <g>
      <path class="cls-1" d="M40.8,167.67c-17.2,0-30.9-4.01-40.8-11.93l26.24-28.47c4.26,2.71,9.82,4.08,16.63,4.08h111.14c6.95,0,12.73-2.04,17.2-6.07,4.59-4.15,6.93-9.64,6.93-16.32v-43.49l34.24-6.03v100.07l-19.43-3.32-1.63,1.15c-9.67,6.86-22.11,10.34-36.97,10.34H40.8Z"/>
      <path class="cls-1" d="M319.69,197.02c4.62-6.58,7.58-14.6,8.79-23.94l.7-5.41h-28.92c-23.45,0-40.27-4.77-49.99-14.19-9.68-9.36-14.59-24.8-14.59-45.91,0-13.91,2.73-26.42,8.12-37.2,5.32-10.64,12.91-19.04,22.56-24.99,9.64-5.94,21.04-8.95,33.9-8.95,16.53,0,30.22,4.59,40.7,13.63l1.71,1.48,20.79-3.56v115.15c0,16.47-3.05,31.31-9.09,44.15l-34.68-10.25ZM298.89,70.34c-9.36,0-16.75,3.48-21.94,10.35-4.88,6.46-7.36,14.93-7.36,25.16,0,8.83,2.62,15.47,7.78,19.74,4.95,4.11,13,6.11,24.63,6.11h27.23v-22.74c0-12.06-2.53-21.51-7.52-28.09-5.32-6.98-12.99-10.52-22.81-10.52Z"/>
      <path class="cls-1" d="M379.64,197.03c6.32-8.89,9.52-20.25,9.52-33.9V51.95l34.24-5.85v117.03c0,16.47-3.05,31.3-9.08,44.15l-34.67-10.25Z"/>
      <path class="cls-1" d="M542.62,250.08c-27.33-.43-48.67-8.55-63.42-24.14-15.27-16.15-23.02-39.25-23.02-68.67v-15.5l34.24-9.98v24.45c0,18.65,4.49,33.03,13.33,42.74,8.68,9.56,22.1,14.53,39.9,14.77,35.09-.47,52.81-10.77,52.81-30.6,0-6.37-1.91-11.07-5.66-13.97-3.45-2.65-8.47-3.93-15.36-3.93h-23.29l3.23-33.91h81.28c6.92,0,12.68-1.96,17.12-5.84,4.65-4.05,7.01-9.62,7.01-16.55v-32.45l34.24-7.64v90.63l-19.75-3.38-1.62,1.15c-9.75,6.9-22.2,10.4-37,10.4h-14.13l6.95,7.95c.05.06,1.23,1.48,1.23,7.54,0,13.09-3.64,24.35-11.14,34.41-7.5,10.08-18.1,18.09-31.51,23.83-12.99,5.54-28.28,8.47-45.45,8.68Z"/>
      <polygon class="cls-1" points="719.03 167.67 719.03 61.79 753.61 55.36 753.61 167.67 719.03 167.67"/>
      <path class="cls-1" d="M599.39,72.89c-10.58,0-19.17-8.6-19.17-19.17s8.59-19.17,19.17-19.17,19.16,8.6,19.16,19.17-8.59,19.17-19.16,19.17Z"/>
      <path class="cls-1" d="M131.01,226.44c-10.58,0-19.17-8.6-19.17-19.17s8.59-19.17,19.17-19.17,19.16,8.6,19.16,19.17-8.59,19.17-19.16,19.17Z"/>
      <path class="cls-1" d="M770.24,52.62c-.36-1.13-3.16-9.65-7.31-14.44-1.03-1.19-2.62-2.98-5.28-3.83-1.09-.35-2.04-.44-2.67-.46h-65.67l6.93-33.9h57.95c12.86,0,22.76,2.07,29.41,6.16,6.47,3.97,11.81,11.4,15.85,22.09l8.5,25.15c-10.96,4.53-21.93,9.06-32.89,13.59-2.55-6.48-2.28-7.89-4.83-14.36Z"/>
    </g>
  </g>
</svg>