<?xml version="1.0" encoding="UTF-8"?>
<svg id="Layer_2" data-name="Layer 2" xmlns="http://www.w3.org/2000/svg" viewBox="0 0 642.89 389.78">
  <defs>
    <style>
      .cls-1 {
        fill: #006b3e;
      }

      .cls-2 {
        fill: #00b26b;
      }

      .cls-3 {
        fill: #e4f2e7;
      }
    </style>
  </defs>
  <g id="Layer_1-2" data-name="Layer 1">
    <g>
      <path class="cls-3" d="M194.89,0h448v214.62c0,96.67-78.49,175.16-175.16,175.16H194.89C87.33,389.78,0,302.45,0,194.89H0C0,87.33,87.33,0,194.89,0Z"/>
      <g>
        <path class="cls-1" d="M574.52,194.89v17.99c0,59.37-48.14,107.48-107.51,107.48H182.93c-59.37,0-107.51-48.11-107.51-107.48v-18.47c11.62,0,31.76.25,64.71.38,5.57.23,11.39.18,17.41.08,7.85.03,16.3.03,25.38.03l6.53-.05h224c3.77,0,7.39-.15,10.88-.43h42.67c59.37,0,107.51.48,107.51.48Z"/>
        <path class="cls-2" d="M390.9,194.41c-3.49.28-7.11.43-10.88.43h-190.55l-6.53.05c-9.09,0-17.54,0-25.38-.03-6.18-.03-11.97-.05-17.41-.08-32.95-.13-53.1-.38-64.71-.38v-17.97c0-59.37,48.14-107.51,107.51-107.51h.25l1.97-.03v-.03h4.56l26.75-.25c42.49,0,79.24.15,96.68.25h36.71l125.37-.25s15.34,117.83-84.33,125.78Z"/>
        <circle class="cls-1" cx="335.3" cy="68.15" r="51.02"/>
        <g>
          <path class="cls-3" d="M473.49,136.3c-7.91-.32-15.89-.65-22.57-.94l-6.11,47.73-2.28-28.92c-.82-10.41-9.4-18.51-19.84-18.73l-15.32-.32-6.49,52.38-2.29-29.87c-.96-12.55-11.46-22.21-24.05-22.13l-13.14.09-7.8,59.27-.24-30.97c-.14-17.72-14.92-31.8-32.63-31.06-32.02,1.33-79.75,3.26-104.74,4.02-59.84,9.09-76.18,73.89-26.53,108.3,7.76,5.38,27.06,8.7,27.06,8.7l112.98,4.51s2.92-.27,6.65-.75c7.66-.98,14.26-5.89,17.4-12.94l5.19-11.61.8,3.94c2.11,10.43,11.25,17.93,21.89,17.98l12.61.05,11.45-25.59c.81,3.3,1.64,6.39,2.44,9.2,2.81,9.78,11.79,16.47,21.96,16.39l7.35-.06,13.52-30.04c0,38.12,58.06,37.92,59.26,5.27.51-13.97.52-36.43.4-55.71-.13-20.56-16.38-37.38-36.92-38.22Z"/>
          <path class="cls-3" d="M121.88,174.32l1.13,41.69c.13,4.74,4.27,8.62,9.55,8.92l30.37,1.75v-64.53l-31.85,2.83c-5.32.47-9.33,4.55-9.2,9.34Z"/>
          <polygon class="cls-3" points="145.85 169.84 147.28 220.17 182.89 222.14 182.89 166.69 145.85 169.84"/>
        </g>
        <path class="cls-2" d="M531.79,161.95c49.52,0,89.67-40.15,89.67-89.67v-9.55s-29.74,0-29.74,0c-46.76,0-84.67,37.91-84.67,84.67v14.75s24.74-.2,24.74-.2Z"/>
      </g>
    </g>
  </g>
</svg>