<svg width="230" height="230" viewBox="0 0 230 230" fill="none" xmlns="http://www.w3.org/2000/svg">
<path d="M22.118 208.804C44.3233 207.531 68.554 212.063 89.8662 204.825C118.118 195.231 138.399 168.568 140.284 138.721C140.587 133.917 139.468 110.684 140.796 108.587C141.565 107.37 153.019 107.334 154.844 107.683C156.87 108.071 157.202 110.071 157.356 111.767C160.846 150.758 150.329 187.404 117.156 210.126C83.7954 232.976 46.7334 224.204 8.62987 225.862C7.52236 225.768 5.96139 225.829 5.44748 224.614C4.78516 187.17 4.94456 149.565 5.36778 112.075L111.97 5.43037C113.907 3.44346 115.24 3.31155 117.48 4.89448C119.97 6.65329 127.332 13.4632 124.928 16.7417L22.118 119.489V208.804Z" fill="#16C986"/>
<path d="M207.895 208.804V119.489L142.238 53.7756L140.675 53.3167C131.397 62.9242 120.967 72.0068 111.975 81.8314C102.068 92.6536 95.0328 103.605 91.6388 118.107C87.511 135.75 90.971 155.064 89.4787 173.108C89.0088 174.419 88.0139 175.026 86.6646 175.241C84.9662 175.51 76.128 175.562 74.7237 175.158C73.6656 174.856 72.6021 173.416 72.6543 172.281C73.509 152.415 70.53 131.773 75.4712 112.385C84.6666 76.3131 115.856 56.8645 139.432 30.6967C140.996 29.5535 142.898 30.2873 144.146 31.5377L224.516 112.209C225.503 148.812 224.615 185.623 224.967 222.303C225.118 223.765 224.434 224.781 223.271 225.554L148.914 225.735C146.13 224.902 146.567 214.965 146.875 212.368C147.07 210.716 148.086 208.804 149.906 208.804H207.892H207.895Z" fill="#16C986"/>
</svg>
